<svg width="1656" height="348" viewBox="0 0 1656 348" fill="none" xmlns="http://www.w3.org/2000/svg">
<path fill-rule="evenodd" clip-rule="evenodd" d="M248.444 70.1484C264.908 70.1484 278.255 83.4951 278.255 99.959V248.007C278.255 264.471 264.908 277.818 248.444 277.818H111.642C95.1779 277.818 81.8312 264.471 81.8312 248.007V234.087C85.8558 234.918 90.0246 235.354 94.2954 235.354C128.161 235.354 155.615 207.901 155.615 174.035C155.615 140.169 128.161 112.715 94.2954 112.715C90.0246 112.715 85.8558 113.152 81.8312 113.983V99.959C81.8312 83.4951 95.1779 70.1484 111.642 70.1484H248.444Z" fill="#101733"/>
<path fill-rule="evenodd" clip-rule="evenodd" d="M254.169 199.002C253.943 199.008 253.717 199.011 253.49 199.011H200.326C186.649 199.011 175.562 187.923 175.562 174.246C175.562 160.569 186.649 149.482 200.326 149.482H253.49C253.809 149.482 254.127 149.488 254.443 149.5C269.633 149.277 276.483 136.95 278.027 130.629V166.072C278.027 167.517 277.994 168.9 277.93 170.222C278.144 171.532 278.255 172.876 278.255 174.246C278.255 179.64 276.53 184.632 273.602 188.699C268.538 198.013 260.17 199.114 254.171 199.015C254.17 199.011 254.17 199.006 254.169 199.002Z" fill="#BC1BC0"/>
<circle cx="11.1326" cy="11.1326" r="11.1326" transform="matrix(-1 0 0 1 213.279 163.137)" fill="#101733"/>
<path fill-rule="evenodd" clip-rule="evenodd" d="M93.9747 119.739C89.7118 119.739 85.5631 120.227 81.5816 121.152V137.286C72.8157 137.329 59.8324 137.366 58.1496 137.267C48.235 145.7 44.1419 160.724 43.3347 167.182H81.5816V182.722C68.0748 182.767 46.0379 182.813 43.3347 182.709C43.6766 195.586 53.3537 208.207 58.1496 212.908H81.5816V227.442C85.5631 228.367 89.7118 228.855 93.9747 228.855C124.107 228.855 148.533 204.429 148.533 174.297C148.533 144.165 124.107 119.739 93.9747 119.739Z" fill="#101733"/>
<mask id="path-5-inside-1_655_103" fill="white">
<path d="M22.1995 111.802C17.053 109.701 14.5578 103.81 16.9536 98.7936C32.6251 65.9813 58.2514 38.8322 90.3016 21.3004C125.303 2.15435 165.829 -4.35392 205.065 2.87024C244.301 10.0944 279.852 30.6103 305.739 60.967C331.625 91.3237 346.268 129.669 347.203 169.553C348.139 209.438 335.311 248.428 310.876 279.965C286.442 311.502 251.892 333.663 213.038 342.719C174.184 351.775 133.397 347.174 97.5362 329.69C64.6992 313.681 37.828 287.763 20.6351 255.722C18.0067 250.824 20.2229 244.822 25.2652 242.482V242.482C30.3075 240.142 36.2632 242.351 38.9287 247.229C54.1484 275.083 77.6797 297.614 106.358 311.596C138.061 327.052 174.119 331.12 208.468 323.114C242.817 315.107 273.361 295.516 294.963 267.636C316.564 239.755 327.905 205.286 327.078 170.026C326.251 134.766 313.306 100.866 290.421 74.0289C267.536 47.1919 236.107 29.0547 201.42 22.6681C166.733 16.2815 130.905 22.0352 99.9624 38.9614C71.971 54.273 49.5222 77.8823 35.6254 106.419C33.1915 111.417 27.346 113.903 22.1995 111.802V111.802Z"/>
</mask>
<path d="M22.1995 111.802C17.053 109.701 14.5578 103.81 16.9536 98.7936C32.6251 65.9813 58.2514 38.8322 90.3016 21.3004C125.303 2.15435 165.829 -4.35392 205.065 2.87024C244.301 10.0944 279.852 30.6103 305.739 60.967C331.625 91.3237 346.268 129.669 347.203 169.553C348.139 209.438 335.311 248.428 310.876 279.965C286.442 311.502 251.892 333.663 213.038 342.719C174.184 351.775 133.397 347.174 97.5362 329.69C64.6992 313.681 37.828 287.763 20.6351 255.722C18.0067 250.824 20.2229 244.822 25.2652 242.482V242.482C30.3075 240.142 36.2632 242.351 38.9287 247.229C54.1484 275.083 77.6797 297.614 106.358 311.596C138.061 327.052 174.119 331.12 208.468 323.114C242.817 315.107 273.361 295.516 294.963 267.636C316.564 239.755 327.905 205.286 327.078 170.026C326.251 134.766 313.306 100.866 290.421 74.0289C267.536 47.1919 236.107 29.0547 201.42 22.6681C166.733 16.2815 130.905 22.0352 99.9624 38.9614C71.971 54.273 49.5222 77.8823 35.6254 106.419C33.1915 111.417 27.346 113.903 22.1995 111.802V111.802Z" stroke="#101733" stroke-width="37.8365" stroke-linejoin="round" mask="url(#path-5-inside-1_655_103)"/>
<path d="M603.731 91.9047L557.062 251.375H522.588L493.274 143.264L464.898 251.375H430.424L382.583 93.7809L418.933 89.5596L448.247 204.941L475.216 91.9047H511.801L540.412 204.941L567.146 91.9047H603.731ZM730.343 187.821L711.582 138.339L693.759 187.821H730.343ZM695.166 91.9047H729.405L790.144 249.499L754.029 253.72L741.131 216.901H683.206L670.776 251.375H634.192L695.166 91.9047ZM943.182 222.764L947.403 251.375H837.416V91.9047H874V222.764H943.182ZM1100.44 222.764L1104.66 251.375H994.669V91.9047H1031.25V222.764H1100.44ZM1266.37 251.375H1151.92V91.9047H1252.53L1256.99 120.75H1188.51V156.631H1239.16L1243.62 185.476H1188.51V222.764H1261.68L1266.37 251.375ZM1431.9 91.9047L1436.35 120.75H1383.59V251.375H1347V120.75H1299.16V91.9047H1431.9Z" fill="#101733"/>
<path d="M1549.97 251.375H1483.83V91.9047H1550.44C1567.01 91.9047 1580.77 95.3443 1591.71 102.223C1602.66 109.103 1610.86 118.483 1616.34 130.365C1621.96 142.091 1624.78 155.537 1624.78 170.702C1624.78 187.274 1621.73 201.58 1615.63 213.618C1609.53 225.657 1600.86 234.959 1589.6 241.525C1578.5 247.935 1565.29 251.219 1549.97 251.375ZM1549.97 121.688H1520.42V221.592H1548.09C1555.75 221.592 1562.48 219.872 1568.26 216.432C1574.04 212.836 1578.58 207.286 1581.86 199.782C1585.15 192.277 1586.79 182.584 1586.79 170.702C1586.79 160.852 1585.38 152.253 1582.57 144.905C1579.91 137.557 1575.84 131.85 1570.37 127.786C1565.06 123.721 1558.25 121.688 1549.97 121.688Z" fill="#BC1BC0"/>
</svg>
