<svg width="1149" height="822" viewBox="0 0 1149 822" fill="none" xmlns="http://www.w3.org/2000/svg">
<path d="M231.131 651L191.331 787H161.931L136.931 694.8L112.731 787H83.3313L42.5313 652.6L73.5313 649L98.5313 747.4L121.531 651H152.731L177.131 747.4L199.931 651H231.131ZM339.109 732.8L323.109 690.6L307.909 732.8H339.109ZM309.109 651H338.309L390.109 785.4L359.309 789L348.309 757.6H298.909L288.309 787H257.109L309.109 651ZM520.623 762.6L524.223 787H430.423V651H461.623V762.6H520.623ZM654.733 762.6L658.333 787H564.533V651H595.733V762.6H654.733ZM796.242 787H698.642V651H784.442L788.242 675.6H729.842V706.2H773.042L776.842 730.8H729.842V762.6H792.242L796.242 787ZM937.411 651L941.211 675.6H896.211V787H865.011V675.6H824.211V651H937.411Z" fill="#101733"/>
<path d="M1038.1 787H981.705V651H1038.5C1052.64 651 1064.37 653.933 1073.7 659.8C1083.04 665.667 1090.04 673.667 1094.7 683.8C1099.5 693.8 1101.9 705.267 1101.9 718.2C1101.9 732.333 1099.3 744.533 1094.1 754.8C1088.9 765.067 1081.5 773 1071.9 778.6C1062.44 784.067 1051.17 786.867 1038.1 787ZM1038.1 676.4H1012.9V761.6H1036.5C1043.04 761.6 1048.77 760.133 1053.7 757.2C1058.64 754.133 1062.5 749.4 1065.3 743C1068.1 736.6 1069.5 728.333 1069.5 718.2C1069.5 709.8 1068.3 702.467 1065.9 696.2C1063.64 689.933 1060.17 685.067 1055.5 681.6C1050.97 678.133 1045.17 676.4 1038.1 676.4Z" fill="#BC1BC0"/>
<path fill-rule="evenodd" clip-rule="evenodd" d="M701.999 114C730.718 114 753.999 137.281 753.999 166V443C753.999 471.719 730.718 495 701.999 495H445.631C416.912 495 393.631 471.719 393.631 443V414.674C401.015 416.199 408.664 417 416.5 417C478.632 417 529 366.632 529 304.5C529 242.368 478.632 192 416.5 192C408.664 192 401.015 192.801 393.631 194.326V166C393.631 137.281 416.912 114 445.631 114H701.999Z" fill="#101733"/>
<path fill-rule="evenodd" clip-rule="evenodd" d="M708.565 350.464C708.982 350.464 709.398 350.458 709.813 350.447L709.816 350.465C720.817 350.646 736.162 348.627 745.455 331.557C750.832 324.093 753.999 314.931 753.999 305.03C753.999 302.518 753.795 300.055 753.403 297.654C753.521 295.223 753.582 292.682 753.582 290.025V225C750.746 236.617 738.138 259.291 710.169 259.624C709.636 259.605 709.102 259.596 708.565 259.596H611.028C585.935 259.596 565.594 279.937 565.594 305.03C565.594 330.122 585.935 350.464 611.028 350.464H708.565ZM614.362 325.454C603.082 325.454 593.938 316.31 593.938 305.03C593.938 293.75 603.082 284.606 614.362 284.606C625.642 284.606 634.787 293.75 634.787 305.03C634.787 316.31 625.642 325.454 614.362 325.454Z" fill="#BC1BC0"/>
<path fill-rule="evenodd" clip-rule="evenodd" d="M415.904 205C408.083 205 400.471 205.897 393.167 207.594V237.181C377.085 237.259 353.267 237.327 350.18 237.145C331.99 252.617 324.481 280.18 323 292.028H393.167V320.538C368.386 320.621 327.959 320.706 323 320.515C323.627 344.141 341.381 367.296 350.18 375.92H393.167V402.598C400.471 404.294 408.083 405.191 415.904 405.191C471.185 405.191 515.999 360.377 515.999 305.096C515.999 249.815 471.185 205 415.904 205Z" fill="#101733"/>
<mask id="path-5-inside-1_501_57" fill="white">
<path d="M299.933 196.076C290.907 192.391 286.531 182.059 290.733 173.262C318.217 115.716 363.16 68.103 419.369 37.356C480.753 3.77825 551.827 -7.63579 620.638 5.03376C689.449 17.7033 751.798 53.6835 797.197 106.922C842.596 160.161 868.275 227.41 869.916 297.359C871.557 367.307 849.059 435.686 806.207 490.995C763.354 546.305 702.761 585.169 634.62 601.051C566.48 616.934 494.948 608.865 432.057 578.203C374.468 550.125 327.342 504.672 297.189 448.479C292.58 439.888 296.467 429.363 305.31 425.258V425.258C314.153 421.154 324.598 425.029 329.272 433.584C355.964 482.434 397.233 521.947 447.529 546.469C503.128 573.576 566.366 580.709 626.606 566.668C686.847 552.627 740.414 518.269 778.299 469.373C816.183 420.476 836.072 360.025 834.621 298.187C833.171 236.348 810.468 176.896 770.333 129.83C730.198 82.7639 675.078 50.9553 614.245 39.7547C553.413 28.5541 490.578 38.6448 436.312 68.3295C387.221 95.1826 347.851 136.588 323.479 186.635C319.211 195.4 308.959 199.761 299.933 196.076V196.076Z"/>
</mask>
<path d="M299.933 196.076C290.907 192.391 286.531 182.059 290.733 173.262C318.217 115.716 363.16 68.103 419.369 37.356C480.753 3.77825 551.827 -7.63579 620.638 5.03376C689.449 17.7033 751.798 53.6835 797.197 106.922C842.596 160.161 868.275 227.41 869.916 297.359C871.557 367.307 849.059 435.686 806.207 490.995C763.354 546.305 702.761 585.169 634.62 601.051C566.48 616.934 494.948 608.865 432.057 578.203C374.468 550.125 327.342 504.672 297.189 448.479C292.58 439.888 296.467 429.363 305.31 425.258V425.258C314.153 421.154 324.598 425.029 329.272 433.584C355.964 482.434 397.233 521.947 447.529 546.469C503.128 573.576 566.366 580.709 626.606 566.668C686.847 552.627 740.414 518.269 778.299 469.373C816.183 420.476 836.072 360.025 834.621 298.187C833.171 236.348 810.468 176.896 770.333 129.83C730.198 82.7639 675.078 50.9553 614.245 39.7547C553.413 28.5541 490.578 38.6448 436.312 68.3295C387.221 95.1826 347.851 136.588 323.479 186.635C319.211 195.4 308.959 199.761 299.933 196.076V196.076Z" stroke="#101733" stroke-width="66" stroke-linejoin="round" mask="url(#path-5-inside-1_501_57)"/>
</svg>
