<svg width="600" height="600" viewBox="0 0 600 600" fill="none" xmlns="http://www.w3.org/2000/svg">
<path fill-rule="evenodd" clip-rule="evenodd" d="M433.713 112.312C462.432 112.312 485.713 135.594 485.713 164.313V435.682C485.713 464.401 462.432 487.682 433.713 487.682H182.671C153.952 487.682 130.671 464.401 130.671 435.682V408.543C137.946 410.045 145.482 410.835 153.202 410.835C214.416 410.835 264.039 361.211 264.039 299.997C264.039 238.783 214.416 189.16 153.202 189.16C145.482 189.16 137.946 189.949 130.671 191.451V164.313C130.671 135.594 153.952 112.312 182.671 112.312H433.713Z" fill="#101733"/>
<path fill-rule="evenodd" clip-rule="evenodd" d="M440.13 255.757L440.163 255.758H440.951C441.466 255.758 441.98 255.767 442.491 255.784C470.075 255.478 482.507 233.123 485.303 221.672V285.736C485.303 288.354 485.243 290.859 485.127 293.254C485.513 295.619 485.713 298.047 485.713 300.521C485.713 310.278 482.592 319.306 477.292 326.661C468.137 343.472 453.021 345.461 442.183 345.282L442.18 345.267C441.772 345.278 441.362 345.283 440.951 345.283H344.855C320.133 345.283 300.092 325.242 300.092 300.521C300.092 275.799 320.133 255.758 344.855 255.758H440.099L440.13 255.757ZM348.14 320.643C337.027 320.643 328.018 311.633 328.018 300.52C328.018 289.407 337.027 280.397 348.14 280.397C359.254 280.397 368.263 289.407 368.263 300.52C368.263 311.633 359.254 320.643 348.14 320.643Z" fill="#BC1BC0"/>
<path fill-rule="evenodd" clip-rule="evenodd" d="M152.614 201.97C144.909 201.97 137.41 202.854 130.214 204.526L130.214 233.677C114.369 233.754 90.9035 233.821 87.8618 233.642C69.9409 248.885 62.5426 276.041 61.0835 287.714H130.214V315.803C105.799 315.884 65.9694 315.967 61.0835 315.78C61.7015 339.056 79.1932 361.869 87.8618 370.366H130.214V396.648C137.41 398.319 144.909 399.203 152.614 399.203C207.078 399.203 251.23 355.051 251.23 300.587C251.23 246.122 207.078 201.97 152.614 201.97Z" fill="#101733"/>
<mask id="path-4-inside-1_1002_1873" fill="white">
<path d="M38.3578 193.178C29.4653 189.547 25.154 179.368 29.2936 170.701C56.3717 114.006 100.65 67.0965 156.028 36.804C216.505 3.72241 286.529 -7.52295 354.323 4.95937C422.117 17.4417 483.544 52.8901 528.272 105.342C573.001 157.794 598.301 224.05 599.917 292.964C601.534 361.879 579.369 429.248 537.149 483.739C494.93 538.231 435.233 576.521 368.099 592.169C300.965 607.816 230.49 599.867 168.529 569.658C111.791 541.995 65.3616 497.214 35.6546 441.851C31.1132 433.387 34.9424 423.017 43.6548 418.974V418.974C52.3672 414.93 62.6577 418.748 67.2634 427.177C93.5609 475.304 134.219 514.234 183.772 538.393C238.549 565.1 300.853 572.127 360.203 558.294C419.554 544.46 472.329 510.61 509.654 462.436C546.978 414.262 566.573 354.704 565.144 293.78C563.715 232.855 541.348 174.282 501.806 127.911C462.264 81.5407 407.959 50.2023 348.025 39.1672C288.091 28.1321 226.186 38.0737 172.721 67.3196C124.356 93.776 85.5674 134.569 61.5557 183.877C57.3504 192.512 47.2502 196.809 38.3578 193.178V193.178Z"/>
</mask>
<path d="M38.3578 193.178C29.4653 189.547 25.154 179.368 29.2936 170.701C56.3717 114.006 100.65 67.0965 156.028 36.804C216.505 3.72241 286.529 -7.52295 354.323 4.95937C422.117 17.4417 483.544 52.8901 528.272 105.342C573.001 157.794 598.301 224.05 599.917 292.964C601.534 361.879 579.369 429.248 537.149 483.739C494.93 538.231 435.233 576.521 368.099 592.169C300.965 607.816 230.49 599.867 168.529 569.658C111.791 541.995 65.3616 497.214 35.6546 441.851C31.1132 433.387 34.9424 423.017 43.6548 418.974V418.974C52.3672 414.93 62.6577 418.748 67.2634 427.177C93.5609 475.304 134.219 514.234 183.772 538.393C238.549 565.1 300.853 572.127 360.203 558.294C419.554 544.46 472.329 510.61 509.654 462.436C546.978 414.262 566.573 354.704 565.144 293.78C563.715 232.855 541.348 174.282 501.806 127.911C462.264 81.5407 407.959 50.2023 348.025 39.1672C288.091 28.1321 226.186 38.0737 172.721 67.3196C124.356 93.776 85.5674 134.569 61.5557 183.877C57.3504 192.512 47.2502 196.809 38.3578 193.178V193.178Z" stroke="#101733" stroke-width="66" stroke-linejoin="round" mask="url(#path-4-inside-1_1002_1873)"/>
</svg>
